<svg id="svg" xmlns="http://www.w3.org/2000/svg" xmlns:xlink="http://www.w3.org/1999/xlink" width="400" height="168.06406029203956" viewBox="0, 0, 400,168.06406029203956" version="1.1"><g id="svgg"><path id="path1" d="M48.425 2.432 C 47.605 2.563,46.667 2.750,46.342 2.848 C 46.016 2.947,45.166 3.085,44.453 3.156 C 43.486 3.252,43.062 3.374,42.783 3.635 C 42.227 4.158,40.443 4.920,37.000 6.106 C 31.093 8.141,28.019 10.544,26.940 13.970 C 23.582 24.629,24.043 29.884,28.995 37.397 C 29.613 38.335,31.077 40.711,32.247 42.676 C 34.931 47.182,35.066 47.375,37.035 49.546 C 39.888 52.691,40.034 53.274,39.594 59.758 C 39.569 60.129,39.471 60.579,39.377 60.758 C 39.283 60.937,39.123 61.477,39.022 61.958 C 38.596 63.976,36.915 66.645,35.578 67.429 C 34.195 68.239,29.861 69.019,26.522 69.058 L 24.410 69.083 22.080 67.923 C 19.920 66.847,19.636 66.649,18.189 65.210 C 16.486 63.517,16.233 63.333,15.596 63.333 C 15.291 63.333,15.062 63.166,14.793 62.749 C 14.047 61.590,12.400 61.557,11.822 62.689 C 11.434 63.450,11.135 63.615,10.595 63.369 C 8.284 62.316,6.081 65.468,7.501 67.796 C 7.686 68.099,7.833 68.635,7.833 69.004 C 7.833 69.769,7.914 69.806,8.462 69.292 L 8.861 68.917 9.264 69.384 C 9.704 69.895,9.733 70.059,9.675 71.674 C 9.638 72.708,9.668 72.803,10.235 73.482 C 10.564 73.876,10.833 74.326,10.833 74.483 C 10.833 74.934,11.714 76.203,12.407 76.750 C 13.358 77.501,15.146 79.354,15.433 79.885 C 15.729 80.434,16.920 81.000,17.781 81.000 C 18.104 81.000,18.716 81.181,19.142 81.401 C 20.292 81.997,21.641 82.333,22.885 82.333 L 23.990 82.333 24.135 82.875 C 24.220 83.196,24.375 83.402,24.515 83.380 C 25.195 83.273,26.975 82.758,27.372 82.553 C 27.697 82.385,27.917 82.366,28.140 82.486 C 28.464 82.659,32.090 83.027,33.231 83.003 C 33.608 82.995,34.001 83.100,34.173 83.256 C 34.445 83.502,34.534 83.495,35.294 83.168 C 35.748 82.972,36.530 82.797,37.032 82.778 C 37.849 82.747,38.032 82.667,38.764 82.022 L 39.583 81.302 40.833 81.387 C 41.521 81.434,42.290 81.524,42.542 81.589 C 42.955 81.694,43.011 81.656,43.102 81.198 C 43.329 80.061,44.796 79.592,46.061 80.251 C 47.331 80.914,49.393 79.898,49.750 78.434 C 49.906 77.793,49.960 77.744,50.611 77.657 C 51.490 77.540,51.729 77.336,52.233 76.270 C 52.457 75.796,52.803 75.262,53.001 75.082 C 53.445 74.680,53.833 73.782,53.833 73.156 C 53.833 72.897,54.097 72.107,54.419 71.401 C 54.740 70.695,55.122 69.659,55.266 69.100 C 55.410 68.541,55.750 67.315,56.021 66.375 C 56.461 64.849,56.492 64.595,56.312 63.995 C 56.133 63.397,56.148 63.274,56.445 62.870 C 57.107 61.973,57.235 59.991,56.712 58.750 C 56.519 58.292,56.223 57.475,56.055 56.936 C 55.887 56.397,55.623 55.809,55.469 55.631 C 55.314 55.452,55.141 55.097,55.085 54.843 C 55.027 54.577,54.811 54.301,54.578 54.194 C 54.212 54.028,54.182 53.938,54.271 53.286 C 54.397 52.369,53.882 51.713,49.665 47.417 C 47.153 44.857,46.454 44.025,44.907 41.750 C 43.910 40.283,42.467 38.296,41.701 37.333 C 38.144 32.866,37.000 30.436,37.000 27.354 C 37.000 26.278,39.097 23.333,39.863 23.333 C 39.949 23.333,40.412 22.962,40.891 22.509 C 41.371 22.056,42.097 21.541,42.506 21.365 C 43.316 21.016,44.852 19.827,45.932 18.713 C 46.583 18.042,46.639 18.019,47.135 18.206 C 47.584 18.375,47.742 18.352,48.303 18.037 C 49.020 17.634,51.610 16.675,53.417 16.143 C 54.058 15.954,54.781 15.614,55.023 15.386 C 55.624 14.822,56.309 14.701,58.511 14.770 C 59.546 14.803,61.337 14.719,62.489 14.583 C 63.641 14.447,64.675 14.336,64.786 14.335 C 64.898 14.334,65.297 13.926,65.673 13.428 C 66.500 12.333,66.477 12.258,64.830 10.667 C 64.117 9.977,63.519 9.203,63.183 8.537 C 62.516 7.210,61.647 6.247,60.677 5.757 C 59.596 5.211,56.728 4.320,56.425 4.436 C 56.285 4.490,55.664 4.274,55.044 3.956 C 52.153 2.472,50.526 2.098,48.425 2.432 M69.417 5.577 C 69.050 5.692,68.478 5.750,68.147 5.707 C 67.388 5.608,67.229 5.847,67.590 6.544 C 67.744 6.841,67.970 7.643,68.094 8.327 C 68.383 9.931,69.345 11.906,70.056 12.356 C 71.137 13.040,73.913 12.577,74.852 11.557 C 75.639 10.701,76.049 8.425,75.500 7.955 C 75.317 7.798,75.167 7.514,75.167 7.324 C 75.167 6.426,74.442 6.006,72.333 5.681 C 70.290 5.366,70.113 5.360,69.417 5.577 M107.083 6.500 C 106.625 6.581,105.638 6.774,104.889 6.930 L 103.528 7.213 103.609 7.731 C 103.665 8.093,103.553 8.502,103.239 9.083 C 102.003 11.369,101.833 11.756,101.833 12.297 C 101.833 12.928,100.397 15.402,99.592 16.159 C 99.243 16.486,99.167 16.712,99.167 17.416 C 99.167 18.013,98.914 19.004,98.334 20.678 C 97.876 22.001,97.501 23.208,97.501 23.361 C 97.500 23.514,97.323 24.002,97.106 24.445 C 96.450 25.783,95.386 29.410,94.742 32.500 C 94.408 34.104,93.684 36.992,93.133 38.917 C 92.582 40.842,91.920 43.204,91.663 44.167 C 91.406 45.129,91.119 46.114,91.026 46.355 C 90.933 46.597,90.402 48.659,89.847 50.939 C 88.500 56.466,88.431 56.741,87.760 59.275 C 87.441 60.480,87.021 62.430,86.828 63.608 C 86.634 64.786,86.257 66.634,85.989 67.715 C 85.520 69.609,85.114 70.925,83.000 77.417 C 82.462 79.067,81.970 80.754,81.907 81.167 C 81.843 81.579,81.610 82.471,81.390 83.148 C 80.451 86.029,80.512 88.146,81.597 90.315 C 82.235 91.591,82.352 91.671,84.417 92.257 C 85.318 92.512,86.508 93.022,87.398 93.532 C 88.371 94.092,89.056 94.377,89.398 94.366 C 89.683 94.357,90.393 94.496,90.976 94.675 C 91.558 94.854,92.228 95.000,92.463 95.000 C 92.698 95.000,93.029 95.126,93.199 95.279 C 93.488 95.541,93.566 95.540,94.415 95.272 C 95.094 95.059,95.861 94.991,97.453 95.005 C 98.625 95.016,100.146 94.979,100.833 94.922 C 101.521 94.866,102.796 94.796,103.667 94.767 C 106.233 94.680,108.156 94.385,109.667 93.846 C 111.315 93.257,111.698 93.232,113.184 93.613 C 114.205 93.874,114.459 93.876,116.682 93.634 L 119.079 93.373 119.873 92.478 C 121.137 91.055,121.204 89.511,120.064 88.063 C 119.800 87.727,119.318 86.996,118.995 86.440 L 118.406 85.427 116.245 84.700 C 114.207 84.014,114.009 83.978,112.788 84.074 C 111.951 84.139,111.369 84.108,111.140 83.986 C 110.939 83.878,109.642 83.765,108.124 83.722 L 105.461 83.648 104.796 84.109 C 104.054 84.624,103.525 84.709,99.375 84.988 C 95.679 85.237,95.743 85.287,96.563 82.794 C 96.872 81.853,97.214 80.708,97.323 80.250 C 97.432 79.792,97.656 79.186,97.821 78.905 C 98.333 78.029,98.652 76.825,98.921 74.750 C 99.253 72.188,99.590 70.743,99.983 70.190 C 100.343 69.684,100.664 68.629,100.666 67.951 C 100.666 67.695,100.967 66.564,101.333 65.437 C 101.795 64.016,102.000 63.094,102.000 62.432 C 102.000 61.731,102.106 61.290,102.397 60.780 C 102.788 60.093,103.273 57.903,103.407 56.221 C 103.444 55.746,103.548 55.221,103.637 55.054 C 104.446 53.529,105.465 48.803,105.911 44.500 C 106.039 43.262,106.261 41.800,106.405 41.250 C 106.549 40.700,106.740 38.998,106.830 37.468 C 106.933 35.732,107.090 34.448,107.248 34.052 C 107.388 33.702,107.605 32.892,107.732 32.250 C 108.109 30.334,108.996 27.474,109.489 26.583 C 109.977 25.701,110.641 23.796,111.086 22.000 C 111.456 20.506,112.294 17.892,112.581 17.338 C 112.712 17.085,112.901 16.212,113.002 15.398 C 113.103 14.583,113.252 13.617,113.333 13.250 C 113.415 12.883,113.564 11.765,113.666 10.764 L 113.850 8.945 113.072 8.155 C 111.499 6.558,109.655 6.049,107.083 6.500 M218.578 7.934 C 218.233 8.356,216.667 9.661,215.100 10.834 C 210.765 14.078,208.498 16.326,207.211 18.655 C 206.702 19.577,205.716 20.933,204.781 22.000 C 204.660 22.137,204.466 22.587,204.349 23.000 C 204.232 23.412,203.212 25.662,202.081 28.000 C 196.622 39.290,195.693 42.891,195.330 54.167 C 195.134 60.220,195.238 62.173,195.923 65.417 C 196.156 66.517,196.461 68.091,196.601 68.914 C 196.976 71.127,198.111 72.873,199.699 73.683 C 200.211 73.944,200.449 74.220,200.749 74.898 C 201.194 75.904,202.353 77.031,203.761 77.825 C 204.306 78.133,204.824 78.581,205.022 78.916 C 205.206 79.229,205.483 79.521,205.637 79.565 C 205.791 79.609,206.892 79.877,208.083 80.161 C 209.275 80.444,211.412 81.029,212.833 81.460 C 215.653 82.316,215.939 82.344,219.833 82.133 C 222.180 82.006,224.322 81.542,224.977 81.020 C 225.647 80.485,226.210 80.203,228.228 79.392 C 230.304 78.558,230.260 78.591,232.479 76.153 C 235.115 73.256,235.751 72.455,236.054 71.650 C 236.212 71.229,236.527 70.709,236.754 70.496 C 237.112 70.160,237.167 69.963,237.167 69.013 C 237.167 68.316,237.290 67.593,237.504 67.030 C 237.689 66.543,237.995 65.568,238.184 64.864 C 238.389 64.102,238.962 62.793,239.597 61.633 C 240.563 59.872,240.648 59.641,240.471 59.253 C 240.313 58.905,240.328 58.715,240.554 58.241 C 240.770 57.788,240.799 57.505,240.682 56.986 C 240.560 56.442,240.623 55.979,241.015 54.533 C 241.281 53.552,241.498 52.518,241.499 52.233 C 241.500 51.941,241.710 51.404,241.985 50.995 C 242.372 50.419,242.439 50.194,242.318 49.876 C 242.088 49.273,242.137 48.476,242.422 48.161 C 242.941 47.588,243.007 46.898,242.581 46.498 C 242.277 46.212,242.212 46.015,242.282 45.586 C 242.444 44.586,241.462 43.375,239.122 41.689 C 238.948 41.564,238.257 41.325,237.587 41.157 C 236.917 40.990,235.555 40.436,234.560 39.927 C 231.990 38.613,231.576 38.564,228.583 39.214 C 227.942 39.354,226.779 39.519,226.000 39.581 C 225.221 39.644,223.783 39.876,222.804 40.097 C 221.825 40.319,220.654 40.500,220.203 40.500 C 215.518 40.500,212.253 47.792,215.891 50.128 C 216.272 50.372,216.828 50.780,217.128 51.034 C 217.428 51.288,217.878 51.546,218.128 51.608 C 218.598 51.723,219.694 52.729,219.880 53.215 C 219.938 53.366,220.251 53.601,220.576 53.736 C 220.901 53.872,221.167 54.060,221.167 54.154 C 221.167 54.553,222.162 54.791,224.250 54.892 C 227.101 55.029,227.000 54.835,225.970 58.213 C 224.845 61.908,222.003 67.628,219.962 70.308 C 219.067 71.484,218.668 72.206,218.156 73.574 C 217.593 75.078,216.771 75.297,213.714 74.759 C 211.883 74.436,211.801 74.376,211.255 72.969 C 210.996 72.298,210.613 71.408,210.405 70.991 C 209.399 68.971,208.296 65.286,208.406 64.314 C 208.492 63.551,208.429 63.136,208.067 62.064 C 207.354 59.958,207.420 57.280,208.315 51.926 C 208.698 49.639,208.974 47.673,208.929 47.556 C 208.884 47.439,209.005 46.910,209.198 46.380 C 209.390 45.850,209.600 44.892,209.663 44.250 C 209.727 43.604,209.980 42.600,210.230 42.000 C 210.504 41.343,210.750 40.326,210.854 39.417 C 211.176 36.621,211.926 34.545,213.188 32.956 C 213.462 32.610,213.915 31.823,214.193 31.206 C 215.282 28.794,215.682 28.053,216.329 27.250 C 216.698 26.792,217.147 26.191,217.326 25.915 C 217.506 25.639,218.137 25.095,218.729 24.705 C 219.459 24.226,219.970 23.732,220.312 23.175 C 220.901 22.218,221.163 22.051,222.452 21.813 C 223.505 21.618,224.574 21.135,224.784 20.760 C 225.038 20.307,228.180 18.360,228.806 18.268 C 230.187 18.064,232.310 18.001,233.222 18.137 C 234.355 18.305,234.453 18.243,235.107 16.954 C 235.972 15.246,234.775 12.646,232.583 11.472 C 231.942 11.129,231.267 10.670,231.083 10.454 C 230.595 9.877,228.408 8.875,227.224 8.687 C 226.660 8.597,225.685 8.371,225.057 8.184 C 224.429 7.997,223.428 7.773,222.833 7.687 C 222.237 7.601,221.539 7.449,221.281 7.349 C 220.147 6.909,219.261 7.101,218.578 7.934 M298.944 8.176 C 298.162 8.267,297.600 8.443,297.155 8.738 C 296.799 8.974,296.449 9.167,296.379 9.168 C 295.036 9.177,292.341 11.543,292.757 12.347 C 293.092 12.995,293.061 14.135,292.679 15.194 C 292.025 17.002,291.457 18.949,291.252 20.083 C 291.047 21.218,288.673 30.576,287.997 32.917 C 287.811 33.558,287.158 35.958,286.546 38.250 L 285.432 42.417 285.439 44.833 C 285.442 46.163,285.473 47.925,285.507 48.750 C 285.558 49.991,285.474 50.667,285.024 52.667 C 284.724 53.996,284.377 55.683,284.253 56.417 C 284.129 57.150,283.910 58.387,283.766 59.167 C 283.622 59.946,283.515 61.183,283.527 61.917 C 283.543 62.847,283.414 63.830,283.101 65.167 C 282.317 68.515,281.867 71.501,281.768 74.000 C 281.698 75.793,281.561 76.869,281.239 78.167 C 280.136 82.618,281.558 85.075,285.772 85.995 L 287.176 86.302 288.796 85.897 C 289.687 85.674,290.553 85.525,290.720 85.566 C 291.609 85.786,293.513 83.046,293.381 81.736 C 293.319 81.113,293.376 80.738,293.597 80.319 C 293.783 79.967,293.902 79.369,293.911 78.750 C 293.923 77.812,294.332 76.225,295.005 74.500 C 295.165 74.087,295.348 73.487,295.410 73.167 C 295.472 72.846,295.848 71.571,296.244 70.333 C 296.641 69.096,297.053 67.408,297.159 66.583 C 297.509 63.881,297.684 63.103,298.281 61.600 C 298.695 60.557,298.936 59.591,299.090 58.350 C 299.332 56.397,299.393 56.178,299.932 55.333 C 300.271 54.802,300.609 53.283,300.526 52.665 C 300.508 52.527,300.682 51.857,300.913 51.178 C 301.144 50.498,301.333 49.744,301.333 49.503 C 301.333 49.261,301.443 48.918,301.578 48.740 C 301.713 48.562,301.826 48.229,301.830 48.000 C 301.834 47.771,301.952 47.208,302.093 46.750 C 302.266 46.188,302.374 44.940,302.427 42.917 C 302.511 39.699,302.671 38.203,303.114 36.523 C 303.347 35.637,303.360 35.341,303.192 34.713 C 303.055 34.202,303.045 33.897,303.160 33.758 C 303.253 33.646,303.410 32.975,303.508 32.267 C 303.607 31.560,303.938 30.329,304.246 29.532 C 304.839 27.993,305.333 25.899,305.333 24.924 C 305.333 24.599,305.397 24.333,305.475 24.333 C 305.738 24.333,306.671 26.024,306.840 26.807 C 307.017 27.627,308.251 31.843,309.334 35.333 C 309.690 36.479,310.293 38.429,310.673 39.667 C 311.464 42.240,312.579 45.287,313.443 47.241 C 313.770 47.979,314.957 51.358,316.081 54.750 C 317.206 58.142,318.276 61.254,318.461 61.667 C 318.645 62.079,318.884 62.792,318.991 63.250 C 319.099 63.708,319.605 65.058,320.116 66.250 C 320.628 67.442,321.302 69.054,321.615 69.833 C 322.819 72.837,324.397 76.436,324.697 76.866 C 325.106 77.453,328.403 79.400,329.553 79.734 C 330.459 79.997,331.237 80.602,331.423 81.186 C 331.635 81.856,332.554 82.039,335.090 81.920 C 336.767 81.840,337.555 81.866,337.870 82.009 C 338.539 82.314,339.149 82.082,339.427 81.417 C 339.724 80.706,340.118 80.486,340.872 80.608 C 341.544 80.717,341.546 80.715,342.219 79.167 C 342.526 78.463,342.742 77.587,342.839 76.667 C 342.920 75.887,343.033 74.912,343.090 74.500 C 343.147 74.087,343.125 73.567,343.040 73.343 C 342.937 73.071,342.956 72.700,343.098 72.228 C 343.215 71.839,343.363 70.972,343.427 70.302 C 343.491 69.632,343.646 68.881,343.772 68.633 C 344.052 68.081,344.066 67.550,343.804 67.462 C 343.696 67.426,343.875 67.232,344.201 67.030 C 345.179 66.426,345.495 64.675,345.151 61.759 C 344.966 60.196,344.967 60.187,345.400 59.621 C 345.731 59.187,345.833 58.858,345.833 58.234 C 345.834 57.785,345.952 56.854,346.097 56.167 C 346.243 55.479,346.320 54.609,346.271 54.233 C 346.221 53.857,346.256 53.272,346.350 52.933 C 346.469 52.503,346.463 51.938,346.331 51.065 C 346.160 49.938,346.171 49.770,346.445 49.365 C 346.705 48.983,346.751 48.558,346.756 46.476 C 346.761 44.847,346.828 43.957,346.961 43.798 C 347.360 43.316,347.662 41.522,347.739 39.164 C 347.792 37.537,347.901 36.546,348.071 36.138 C 348.432 35.275,348.962 32.162,348.833 31.667 C 348.726 31.258,348.788 30.451,349.163 27.382 C 349.321 26.090,349.309 25.709,349.092 24.977 C 348.950 24.498,348.833 23.635,348.833 23.059 C 348.833 21.673,348.313 20.310,347.413 19.342 C 347.026 18.925,346.557 18.283,346.371 17.917 C 345.925 17.038,345.500 16.662,344.000 15.815 C 341.683 14.507,340.955 14.167,340.471 14.167 C 340.206 14.167,339.736 14.061,339.426 13.931 C 338.946 13.731,338.768 13.730,338.223 13.924 C 337.871 14.049,337.405 14.155,337.186 14.159 C 335.635 14.188,335.335 14.571,335.848 15.869 C 336.406 17.280,336.427 18.730,335.929 21.583 C 335.690 22.958,335.416 25.171,335.322 26.500 C 335.227 27.829,334.969 30.192,334.747 31.750 C 334.526 33.308,334.229 35.708,334.087 37.083 C 333.799 39.861,333.628 41.025,332.774 46.000 C 331.715 52.165,331.295 55.807,330.999 61.377 C 330.733 66.395,330.291 68.816,329.638 68.831 C 329.229 68.840,328.110 67.262,327.572 65.917 C 327.242 65.092,326.767 64.079,326.517 63.667 C 325.639 62.218,325.048 60.428,324.893 58.750 C 324.834 58.108,324.647 57.224,324.476 56.785 C 324.306 56.347,324.167 55.698,324.167 55.344 C 324.167 54.946,323.970 54.329,323.650 53.725 C 323.109 52.703,322.168 50.613,321.297 48.500 C 320.518 46.611,319.999 44.453,319.839 42.436 C 319.715 40.866,319.617 40.462,319.113 39.436 C 318.793 38.784,318.329 37.762,318.081 37.167 C 317.833 36.571,317.379 35.740,317.072 35.320 C 316.732 34.856,316.472 34.268,316.408 33.820 C 316.269 32.842,316.008 32.007,315.688 31.514 C 315.543 31.293,315.417 30.843,315.406 30.514 C 315.395 30.186,315.192 29.392,314.955 28.750 C 314.718 28.108,314.447 27.019,314.352 26.330 C 314.258 25.641,313.999 24.591,313.777 23.997 C 313.555 23.403,313.169 22.092,312.919 21.083 C 312.447 19.184,312.215 18.599,311.596 17.750 C 311.396 17.475,311.139 16.931,311.026 16.542 C 310.797 15.753,308.236 13.020,306.803 12.036 C 306.373 11.741,305.978 11.360,305.924 11.190 C 305.870 11.020,305.321 10.395,304.705 9.801 C 303.010 8.170,301.839 7.840,298.944 8.176 M128.417 8.438 C 128.233 8.485,127.773 8.638,127.393 8.777 C 126.871 8.969,126.620 8.987,126.363 8.849 C 125.322 8.292,123.767 9.496,123.612 10.978 C 123.555 11.521,123.364 12.332,123.188 12.779 C 123.012 13.226,122.778 14.190,122.669 14.921 C 122.560 15.652,122.331 16.775,122.159 17.417 C 121.988 18.058,121.763 19.071,121.660 19.667 C 121.557 20.262,121.330 21.275,121.156 21.917 C 120.982 22.558,120.719 23.718,120.573 24.494 C 120.427 25.270,120.223 26.057,120.120 26.244 C 120.017 26.431,119.885 26.958,119.825 27.417 C 119.766 27.875,119.594 28.887,119.444 29.667 C 119.294 30.446,119.024 31.983,118.843 33.083 C 118.663 34.183,118.354 36.058,118.158 37.250 C 117.961 38.442,117.698 40.167,117.572 41.083 C 117.447 42.000,117.266 43.156,117.171 43.651 C 116.848 45.342,116.649 50.740,116.698 56.500 C 116.725 59.663,116.695 62.331,116.632 62.429 C 116.530 62.587,116.223 64.486,115.653 68.472 C 115.536 69.289,115.532 70.041,115.640 70.735 C 115.733 71.332,115.743 72.055,115.663 72.430 C 113.857 80.891,115.106 84.261,120.322 84.998 C 120.917 85.082,121.515 85.286,121.779 85.493 C 122.146 85.782,122.359 85.825,122.963 85.734 C 123.416 85.666,123.951 85.707,124.355 85.840 C 124.955 86.039,125.049 86.027,125.464 85.700 C 126.934 84.543,128.598 83.667,129.333 83.663 C 130.309 83.658,134.658 82.938,135.086 82.711 C 135.268 82.615,136.242 82.485,137.250 82.422 C 140.317 82.232,142.772 80.976,143.541 79.202 C 144.544 76.891,144.479 73.549,143.416 72.666 C 143.264 72.540,142.958 72.078,142.736 71.638 C 142.079 70.342,141.839 70.256,139.538 70.486 C 138.463 70.594,136.603 70.751,135.404 70.836 C 134.205 70.921,132.446 71.142,131.495 71.326 C 129.127 71.785,128.700 71.668,128.181 70.415 C 127.689 69.229,127.797 66.781,128.425 64.871 C 129.053 62.960,129.780 57.885,129.580 56.809 C 129.365 55.652,129.420 54.484,129.734 53.545 C 129.982 52.800,129.996 52.536,129.831 51.739 C 129.672 50.973,129.684 50.608,129.898 49.695 C 130.360 47.720,130.504 46.611,130.400 45.827 C 130.326 45.269,130.415 44.630,130.726 43.488 C 131.247 41.572,131.729 37.570,131.741 35.060 C 131.748 33.564,131.804 33.143,132.030 32.893 C 132.394 32.490,132.593 31.941,132.741 30.934 C 132.807 30.486,132.999 29.811,133.167 29.434 C 133.335 29.058,133.619 28.300,133.797 27.750 C 133.974 27.200,134.276 26.300,134.466 25.750 C 135.122 23.852,135.216 23.418,135.276 22.003 C 135.309 21.222,135.346 20.396,135.358 20.167 C 135.417 19.039,135.158 17.048,134.780 15.724 C 134.549 14.913,134.236 13.688,134.084 13.000 C 133.326 9.561,131.084 7.757,128.417 8.438 M145.709 18.458 C 145.753 18.710,146.142 20.300,146.572 21.991 C 147.002 23.682,147.500 25.782,147.677 26.658 C 147.854 27.534,148.260 29.037,148.579 30.000 C 148.897 30.962,149.304 32.200,149.483 32.750 C 149.662 33.300,150.150 34.688,150.568 35.833 C 150.986 36.979,151.632 38.919,152.002 40.144 C 152.373 41.370,152.900 42.822,153.172 43.371 C 154.282 45.608,154.375 48.305,153.576 55.083 C 153.446 56.183,153.338 57.445,153.337 57.886 C 153.335 58.327,153.255 58.834,153.160 59.012 C 153.065 59.190,152.921 60.254,152.840 61.376 C 152.759 62.498,152.373 65.554,151.982 68.167 C 150.875 75.557,150.982 75.944,154.821 78.469 C 155.882 79.167,156.825 79.820,156.917 79.920 C 157.689 80.765,158.634 81.180,159.167 80.909 C 160.861 80.045,162.246 76.837,162.448 73.303 C 162.507 72.274,162.652 71.245,162.772 71.015 C 162.929 70.710,162.962 70.120,162.891 68.840 C 162.816 67.499,162.856 66.867,163.058 66.167 C 163.209 65.641,163.352 64.362,163.391 63.167 C 163.430 61.993,163.570 60.719,163.712 60.250 C 164.531 57.542,164.773 54.866,164.337 53.346 C 164.229 52.968,164.230 52.708,164.341 52.574 C 164.433 52.463,164.616 51.809,164.748 51.121 C 164.880 50.433,165.136 49.478,165.319 48.998 C 165.523 48.460,165.613 47.938,165.552 47.637 C 165.477 47.260,165.551 47.047,165.877 46.699 C 166.109 46.452,166.653 45.538,167.085 44.667 C 167.517 43.796,168.236 42.543,168.683 41.883 C 169.131 41.223,169.691 40.273,169.928 39.771 C 170.166 39.269,170.468 38.817,170.599 38.767 C 170.730 38.717,171.103 38.092,171.428 37.379 C 171.753 36.667,172.196 35.896,172.413 35.667 C 172.986 35.060,175.886 29.912,176.764 27.940 C 177.177 27.010,177.619 26.025,177.744 25.750 C 177.869 25.475,178.013 24.850,178.063 24.360 C 178.113 23.870,178.344 23.132,178.577 22.714 C 179.720 20.670,177.140 18.831,173.134 18.834 C 171.152 18.836,169.241 20.718,169.034 22.874 C 168.971 23.522,168.861 23.749,168.463 24.047 C 167.297 24.919,166.268 26.380,165.742 27.910 C 165.635 28.220,165.210 28.873,164.796 29.362 C 163.896 30.423,163.569 31.034,163.332 32.090 C 163.199 32.683,162.959 33.074,162.369 33.658 C 161.937 34.086,161.297 34.788,160.947 35.218 C 159.731 36.711,158.656 35.794,158.184 32.861 C 158.002 31.729,157.854 31.388,157.349 30.931 C 157.125 30.728,157.000 30.412,157.000 30.047 C 157.000 29.348,156.796 28.944,156.008 28.079 C 155.566 27.596,155.273 27.014,154.954 25.990 C 154.689 25.139,154.243 24.188,153.839 23.612 C 153.469 23.084,153.167 22.510,153.167 22.337 C 153.167 21.488,151.591 19.373,150.697 19.022 C 149.906 18.712,146.768 18.000,146.189 18.000 C 145.669 18.000,145.635 18.033,145.709 18.458 M68.833 20.527 C 68.421 20.611,67.333 20.722,66.417 20.773 C 64.384 20.888,64.357 20.910,64.833 22.082 C 65.286 23.198,65.253 27.837,64.781 29.417 C 64.633 29.912,64.494 31.299,64.438 32.833 C 64.386 34.254,64.258 36.204,64.154 37.167 C 64.049 38.129,63.976 39.742,63.991 40.750 C 64.008 41.893,63.923 42.991,63.766 43.667 C 63.627 44.262,63.358 46.063,63.169 47.667 C 62.979 49.271,62.781 50.720,62.730 50.888 C 62.398 51.965,62.244 62.098,62.439 69.969 C 62.480 71.648,62.442 73.545,62.353 74.185 C 62.164 75.552,62.628 76.934,63.513 77.637 C 63.781 77.850,64.000 78.125,64.000 78.249 C 64.000 78.718,64.868 79.474,66.087 80.069 C 66.782 80.408,67.390 80.787,67.437 80.911 C 67.612 81.366,68.368 81.518,69.587 81.341 C 70.227 81.249,71.039 81.172,71.391 81.170 C 73.578 81.159,73.578 81.162,73.301 71.500 C 73.286 70.996,73.351 69.608,73.444 68.417 C 73.559 66.945,73.559 65.869,73.443 65.062 C 73.296 64.038,73.322 63.668,73.625 62.395 C 74.054 60.593,74.235 58.975,74.186 57.384 C 74.160 56.541,74.229 56.029,74.420 55.660 C 74.735 55.051,74.789 53.321,74.516 52.616 C 74.377 52.256,74.388 52.044,74.567 51.698 C 75.114 50.641,75.396 48.406,75.192 46.748 C 74.907 44.428,74.940 41.266,75.255 40.656 C 75.425 40.328,75.502 39.758,75.485 38.956 C 75.471 38.293,75.539 36.032,75.637 33.931 C 75.791 30.610,75.781 30.049,75.562 29.625 C 75.336 29.188,75.336 29.107,75.565 28.854 C 76.063 28.303,76.365 27.252,76.454 25.753 L 76.545 24.234 75.981 23.765 C 75.671 23.506,75.335 23.022,75.236 22.689 C 74.964 21.778,74.036 21.204,72.362 20.912 C 71.606 20.780,70.846 20.596,70.672 20.503 C 70.307 20.308,69.887 20.313,68.833 20.527 M264.517 23.264 C 263.924 23.594,262.753 24.030,261.880 24.247 C 261.016 24.461,260.274 24.671,260.231 24.714 C 259.319 25.626,258.864 26.570,258.946 27.387 C 259.056 28.500,258.375 30.251,257.080 32.186 C 256.578 32.937,256.167 33.626,256.167 33.717 C 256.167 33.809,255.536 35.166,254.765 36.734 C 252.941 40.442,248.504 51.898,246.916 57.000 C 246.702 57.688,246.303 58.737,246.031 59.333 C 245.758 59.929,245.335 61.017,245.090 61.750 C 244.846 62.483,244.491 63.346,244.302 63.667 C 244.113 63.987,243.677 65.337,243.332 66.667 C 242.987 67.996,242.284 70.543,241.769 72.327 C 240.770 75.790,240.726 76.133,241.063 77.875 C 241.294 79.065,241.377 79.200,242.821 80.707 C 243.952 81.888,244.517 82.108,245.521 81.759 C 245.922 81.619,246.433 81.504,246.658 81.502 C 247.249 81.499,248.292 80.713,248.755 79.923 C 249.413 78.800,250.199 76.794,250.246 76.115 C 250.273 75.723,250.446 75.308,250.696 75.032 C 250.919 74.785,251.460 73.833,251.897 72.917 C 252.334 72.000,252.804 71.043,252.940 70.790 C 253.105 70.482,253.180 69.901,253.165 69.040 C 253.153 68.330,253.148 67.665,253.155 67.562 C 253.197 66.884,255.157 66.777,257.463 67.327 C 258.968 67.686,259.242 67.709,259.713 67.516 C 260.346 67.258,261.188 67.037,262.000 66.919 C 262.321 66.872,262.808 66.638,263.083 66.399 C 263.729 65.839,264.192 65.667,265.053 65.667 C 265.481 65.666,266.157 65.474,266.807 65.167 C 269.141 64.062,269.755 65.180,270.334 71.592 C 270.425 72.605,270.765 74.512,271.088 75.830 C 271.566 77.774,271.656 78.404,271.569 79.173 C 271.444 80.278,271.503 80.341,273.933 81.729 C 276.046 82.936,277.227 82.621,277.917 80.667 C 278.059 80.263,278.297 79.799,278.445 79.635 C 278.926 79.104,278.911 75.495,278.419 73.250 C 277.468 68.916,277.331 68.225,277.332 67.781 C 277.333 67.523,277.252 67.159,277.152 66.973 C 277.053 66.787,276.901 65.873,276.815 64.942 C 276.587 62.460,276.041 59.522,275.386 57.250 C 275.069 56.150,274.699 54.625,274.563 53.861 C 274.284 52.284,273.517 49.769,272.827 48.167 C 272.571 47.571,272.275 46.596,272.170 46.000 C 272.066 45.404,271.839 44.317,271.668 43.583 C 271.496 42.850,271.308 41.875,271.250 41.417 C 271.077 40.067,270.484 37.277,270.295 36.924 C 270.199 36.744,269.870 35.657,269.563 34.507 C 269.256 33.357,268.891 32.007,268.753 31.505 C 268.614 31.004,268.500 30.353,268.500 30.058 C 268.500 29.419,267.800 26.494,267.450 25.667 C 267.314 25.346,267.114 24.652,267.006 24.125 C 266.670 22.486,266.205 22.325,264.517 23.264 M373.083 23.453 C 367.261 24.872,357.291 32.174,353.677 37.667 C 353.104 38.537,352.500 39.400,352.335 39.583 C 348.983 43.307,348.190 60.035,351.028 67.167 C 353.225 72.689,362.570 80.057,368.079 80.608 C 368.540 80.655,369.404 80.908,370.000 81.172 C 371.306 81.751,371.641 81.776,374.417 81.509 C 376.397 81.319,376.664 81.253,377.521 80.737 C 378.036 80.426,378.841 80.090,379.309 79.990 C 380.278 79.782,382.457 78.427,382.972 77.711 C 383.155 77.457,383.686 76.856,384.152 76.376 C 384.618 75.895,385.000 75.364,385.000 75.196 C 385.000 74.902,385.641 74.167,385.897 74.167 C 386.552 74.167,388.833 71.732,388.833 71.034 C 388.833 70.841,389.130 70.120,389.492 69.431 C 390.210 68.068,390.268 67.727,390.946 60.812 C 391.255 57.659,391.251 57.631,389.980 54.808 C 389.371 53.455,389.325 53.257,389.426 52.369 L 389.535 51.403 388.887 50.954 C 388.531 50.707,387.867 50.434,387.411 50.348 C 386.956 50.261,386.358 50.103,386.083 49.996 C 385.808 49.889,384.458 49.699,383.083 49.575 C 381.708 49.450,379.871 49.271,379.000 49.177 C 373.656 48.599,370.979 49.936,371.011 53.167 C 371.038 55.874,371.357 57.103,372.271 58.017 L 373.103 58.849 374.409 58.580 C 375.126 58.431,375.887 58.196,376.099 58.058 C 376.477 57.810,378.009 57.395,379.172 57.225 C 379.602 57.162,379.870 57.227,380.163 57.463 L 380.564 57.788 380.113 61.519 C 379.865 63.571,379.663 65.813,379.664 66.500 C 379.666 69.513,378.790 70.498,374.419 72.392 C 371.027 73.861,370.657 73.873,368.961 72.568 C 367.465 71.416,365.251 69.194,365.088 68.680 C 365.021 68.471,364.787 68.034,364.567 67.710 C 364.307 67.327,364.166 66.880,364.164 66.435 C 364.162 66.058,364.043 65.225,363.898 64.583 C 363.753 63.942,363.645 62.888,363.657 62.241 C 363.669 61.594,363.564 60.622,363.423 60.081 C 363.282 59.540,363.162 58.494,363.156 57.757 C 363.150 57.020,363.086 55.788,363.012 55.019 C 362.934 54.202,362.944 53.371,363.036 53.019 C 363.122 52.688,363.267 51.933,363.358 51.343 C 363.762 48.707,367.139 43.967,369.470 42.765 C 369.774 42.608,370.176 42.221,370.362 41.906 C 370.547 41.591,370.766 41.333,370.847 41.333 C 371.136 41.333,373.366 39.089,373.671 38.491 C 374.006 37.834,374.462 37.590,375.667 37.423 C 376.804 37.265,377.630 36.784,378.950 35.510 C 379.858 34.634,380.305 34.324,380.784 34.239 C 381.132 34.176,381.942 33.897,382.583 33.618 C 383.676 33.143,383.867 33.113,385.590 33.145 C 387.664 33.185,387.870 33.084,388.420 31.768 C 388.789 30.885,388.561 30.401,387.302 29.392 C 386.751 28.950,386.159 28.390,385.987 28.148 C 385.814 27.906,385.391 27.574,385.045 27.410 C 384.699 27.246,383.721 26.636,382.870 26.056 C 382.020 25.475,381.167 25.000,380.975 25.000 C 380.782 25.000,380.021 24.727,379.282 24.394 C 377.139 23.426,374.709 23.057,373.083 23.453 M263.681 41.455 C 263.776 41.705,264.000 42.536,264.179 43.301 C 264.357 44.067,264.924 45.643,265.439 46.805 C 266.882 50.061,266.888 50.084,266.451 50.591 C 265.985 51.131,264.609 51.306,263.193 51.006 L 262.216 50.798 261.378 51.401 C 258.637 53.370,256.708 53.496,257.472 51.657 C 257.663 51.200,257.909 50.359,258.020 49.788 C 258.172 49.003,258.369 48.581,258.825 48.058 C 259.158 47.677,259.643 46.927,259.903 46.391 C 262.133 41.794,263.254 40.330,263.681 41.455 M341.824 78.405 C 341.982 78.596,341.950 78.682,341.660 78.837 C 341.187 79.090,340.844 78.806,341.161 78.424 C 341.426 78.105,341.571 78.100,341.824 78.405 M263.000 96.501 C 262.679 96.582,261.104 97.298,259.500 98.093 L 256.583 99.538 255.167 99.445 C 254.387 99.395,253.570 99.299,253.350 99.234 C 252.975 99.122,252.959 99.144,253.091 99.599 C 253.168 99.865,253.226 100.308,253.220 100.583 C 253.175 102.553,252.998 104.637,252.769 105.897 C 252.621 106.711,252.500 107.598,252.500 107.867 C 252.500 108.602,251.900 112.521,251.255 116.000 C 250.940 117.696,250.606 119.871,250.511 120.833 C 250.417 121.796,250.258 123.408,250.158 124.417 C 250.058 125.425,249.877 127.375,249.757 128.750 C 249.636 130.125,249.461 131.550,249.367 131.917 C 249.274 132.283,249.147 133.296,249.085 134.167 C 249.024 135.037,248.833 136.575,248.662 137.583 C 248.491 138.592,248.269 140.054,248.169 140.833 C 248.070 141.612,247.805 143.188,247.581 144.333 C 247.357 145.479,247.024 147.550,246.842 148.935 C 246.660 150.320,246.465 151.746,246.407 152.105 C 246.335 152.559,246.408 153.055,246.652 153.747 C 247.061 154.913,247.095 155.897,246.749 156.561 C 246.080 157.843,247.058 159.903,248.583 160.426 C 249.133 160.615,249.808 160.864,250.083 160.981 C 250.448 161.135,250.662 161.144,250.873 161.013 C 251.271 160.766,251.506 160.787,251.856 161.104 C 252.301 161.507,257.365 161.599,258.467 161.224 C 258.998 161.044,259.257 161.020,259.299 161.146 C 259.614 162.092,262.511 162.977,264.333 162.684 C 264.929 162.588,265.785 162.470,266.236 162.421 C 266.686 162.372,267.286 162.185,267.569 162.006 C 267.852 161.826,268.440 161.487,268.875 161.253 C 269.311 161.019,269.761 160.675,269.875 160.490 C 270.188 159.983,271.315 159.383,272.528 159.079 C 273.633 158.801,274.919 157.963,275.824 156.931 C 276.229 156.470,276.795 155.919,278.409 154.417 C 278.933 153.929,279.206 153.490,279.430 152.780 C 279.685 151.970,279.824 151.772,280.274 151.584 C 281.129 151.227,282.015 149.491,282.571 147.083 C 282.635 146.808,282.883 146.283,283.123 145.917 C 283.364 145.550,283.615 144.987,283.682 144.667 C 283.748 144.346,283.995 143.633,284.230 143.083 C 285.024 141.224,284.724 138.261,283.566 136.522 C 282.795 135.364,278.800 132.261,277.635 131.914 C 277.423 131.851,276.846 131.576,276.353 131.303 C 275.860 131.029,273.841 130.320,271.868 129.726 C 268.126 128.600,267.054 128.168,266.881 127.716 C 266.742 127.356,267.489 126.727,268.321 126.503 C 269.289 126.243,270.491 125.342,271.317 124.260 C 271.723 123.727,272.260 123.225,272.521 123.135 C 272.779 123.044,273.148 122.716,273.341 122.405 C 273.533 122.093,273.861 121.705,274.069 121.541 C 274.277 121.377,274.652 120.920,274.901 120.524 C 275.151 120.129,275.575 119.680,275.843 119.528 C 276.220 119.313,276.331 119.131,276.332 118.724 C 276.333 118.260,276.443 118.137,277.263 117.674 C 277.827 117.355,278.301 116.941,278.471 116.619 C 278.624 116.327,279.176 115.659,279.696 115.133 C 281.047 113.767,281.418 113.204,281.644 112.173 C 281.754 111.673,282.065 110.919,282.334 110.498 C 282.835 109.719,283.156 108.239,283.163 106.687 C 283.174 104.365,279.227 100.851,275.750 100.086 C 275.475 100.026,274.688 99.656,274.000 99.264 C 270.954 97.529,268.755 96.754,266.417 96.590 C 265.592 96.533,264.617 96.456,264.250 96.420 C 263.883 96.384,263.321 96.420,263.000 96.501 M318.583 98.810 C 318.217 98.976,317.516 99.246,317.026 99.408 C 316.537 99.571,315.870 99.937,315.544 100.223 C 315.089 100.623,314.805 100.739,314.315 100.726 C 313.643 100.709,313.614 100.972,314.232 101.485 C 315.210 102.297,314.831 104.899,313.214 108.489 C 312.597 109.860,311.990 111.509,311.804 112.322 C 311.625 113.108,311.336 114.275,311.162 114.917 C 310.989 115.558,310.806 116.564,310.757 117.151 C 310.707 117.738,310.556 118.788,310.421 119.484 C 310.060 121.345,309.668 125.563,309.657 127.710 C 309.651 128.740,309.572 129.958,309.481 130.417 C 308.786 133.900,309.297 136.809,310.861 138.269 C 311.464 138.832,315.412 140.500,316.143 140.500 C 316.779 140.500,319.464 137.537,320.047 136.192 C 320.152 135.949,320.631 135.318,321.112 134.790 C 321.728 134.113,322.014 133.646,322.082 133.207 C 322.136 132.864,322.287 132.396,322.418 132.167 C 323.267 130.681,323.244 130.828,323.015 128.451 C 322.782 126.023,322.848 125.210,323.427 123.333 C 324.497 119.866,324.696 117.494,324.068 115.667 C 323.728 114.675,323.662 114.244,323.748 113.583 C 323.809 113.125,323.893 111.550,323.937 110.083 C 323.980 108.617,324.024 107.267,324.034 107.083 C 324.382 100.807,322.034 97.243,318.583 98.810 M295.583 98.958 C 295.033 99.099,293.930 99.224,293.130 99.235 C 291.361 99.260,291.162 99.397,291.601 100.282 C 292.040 101.166,292.062 106.027,291.634 107.667 C 291.464 108.321,291.317 109.707,291.265 111.167 C 291.218 112.496,291.088 114.446,290.978 115.500 C 290.867 116.554,290.796 118.243,290.820 119.253 C 290.848 120.468,290.778 121.427,290.612 122.086 C 290.474 122.635,290.319 123.458,290.267 123.917 C 289.963 126.610,289.640 129.122,289.565 129.373 C 289.232 130.494,289.077 140.567,289.275 148.353 C 289.318 150.060,289.284 151.970,289.200 152.598 C 289.034 153.838,289.624 155.700,290.261 155.944 C 290.410 156.001,290.671 156.371,290.840 156.766 C 291.156 157.504,291.837 158.052,293.082 158.572 C 293.425 158.715,293.970 159.065,294.295 159.350 L 294.885 159.868 296.317 159.751 C 300.757 159.385,300.479 160.102,300.136 149.917 C 300.120 149.458,300.187 148.077,300.284 146.847 C 300.407 145.285,300.407 144.270,300.285 143.482 C 300.135 142.512,300.160 142.149,300.461 140.886 C 300.892 139.073,301.067 137.476,301.017 135.804 C 300.990 134.906,301.057 134.374,301.239 134.021 C 301.538 133.443,301.588 131.754,301.327 131.067 C 301.194 130.718,301.216 130.482,301.421 130.052 C 301.778 129.299,302.076 127.624,302.054 126.500 C 302.043 125.996,301.980 124.230,301.913 122.575 C 301.806 119.951,301.825 119.499,302.064 119.037 C 302.250 118.679,302.330 118.142,302.313 117.379 C 302.299 116.758,302.369 114.494,302.468 112.348 C 302.616 109.157,302.609 108.369,302.427 108.023 C 302.230 107.646,302.249 107.534,302.607 106.994 C 303.529 105.601,303.603 102.749,302.737 102.054 C 302.349 101.743,302.099 101.373,302.022 100.999 C 301.855 100.182,300.747 99.521,299.225 99.329 C 298.597 99.250,297.804 99.069,297.464 98.926 C 296.750 98.627,296.878 98.625,295.583 98.958 M95.298 100.341 C 94.774 100.611,94.273 100.967,94.185 101.132 C 93.908 101.651,92.374 102.272,91.979 102.026 C 91.244 101.566,88.468 103.447,87.500 105.061 C 87.271 105.443,86.851 106.092,86.568 106.503 C 86.285 106.914,85.823 107.674,85.541 108.191 C 85.260 108.709,84.909 109.317,84.762 109.542 C 84.614 109.767,84.203 110.806,83.848 111.851 C 83.492 112.895,83.082 114.027,82.936 114.366 C 82.606 115.128,82.817 119.949,83.233 121.176 C 83.371 121.583,83.633 122.554,83.815 123.333 C 84.610 126.743,86.868 131.593,88.883 134.221 C 89.222 134.664,89.500 135.123,89.500 135.242 C 89.500 135.362,89.616 135.555,89.757 135.672 C 90.698 136.453,92.547 139.718,93.350 142.016 C 94.622 145.654,94.587 147.348,93.179 150.283 L 92.523 151.650 91.303 152.003 C 90.632 152.197,89.781 152.464,89.411 152.595 C 88.294 152.991,86.801 152.398,83.874 150.393 C 83.290 149.994,82.717 149.667,82.601 149.667 C 82.485 149.667,82.042 149.436,81.616 149.154 C 80.038 148.109,79.590 148.855,79.702 152.343 L 79.780 154.786 80.583 156.268 C 81.716 158.361,82.750 159.479,83.566 159.494 C 83.741 159.497,84.123 159.748,84.417 160.050 L 84.952 160.601 87.518 160.801 C 93.145 161.241,95.761 161.010,97.075 159.958 C 97.439 159.666,98.014 159.390,98.360 159.340 C 98.904 159.262,99.133 159.066,100.118 157.839 C 101.179 156.517,101.884 155.885,103.188 155.083 C 104.200 154.462,104.394 152.688,103.909 148.500 C 103.766 147.262,103.585 145.688,103.508 145.000 C 103.373 143.794,102.844 141.998,102.503 141.587 C 102.412 141.478,102.224 141.064,102.084 140.669 C 101.945 140.274,101.432 139.455,100.944 138.850 C 99.692 137.297,99.391 136.825,99.258 136.212 C 99.194 135.915,98.726 135.053,98.217 134.295 C 97.256 132.861,96.000 130.444,96.000 130.027 C 96.000 129.574,94.135 125.916,93.638 125.395 C 93.298 125.039,93.111 124.643,93.048 124.145 C 92.998 123.744,92.856 123.301,92.734 123.161 C 90.243 120.283,93.928 114.171,99.281 112.304 C 100.218 111.977,100.849 111.847,101.161 111.915 C 101.432 111.975,102.151 111.878,102.857 111.687 C 103.532 111.505,104.338 111.294,104.649 111.218 C 105.466 111.020,105.622 110.681,105.340 109.715 C 105.212 109.276,105.080 108.504,105.048 108.000 C 104.959 106.618,104.893 106.439,104.126 105.477 C 103.736 104.988,103.004 103.990,102.500 103.260 C 101.670 102.057,101.494 101.897,100.639 101.568 C 100.120 101.369,99.408 100.975,99.056 100.694 C 98.458 100.217,97.350 99.836,96.583 99.845 C 96.400 99.848,95.821 100.071,95.298 100.341 M131.395 101.599 C 130.765 101.929,129.503 102.398,128.591 102.641 C 126.410 103.222,125.460 104.238,125.606 105.833 C 125.708 106.950,125.011 108.760,123.798 110.526 C 123.378 111.137,122.879 112.055,122.687 112.567 C 122.495 113.079,122.150 113.797,121.919 114.162 C 121.689 114.528,121.500 114.865,121.500 114.912 C 121.500 114.959,121.168 115.692,120.763 116.541 C 119.856 118.437,117.897 123.382,116.421 127.500 C 115.813 129.196,114.916 131.671,114.428 133.000 C 113.939 134.329,113.488 135.642,113.425 135.917 C 113.361 136.192,113.022 137.057,112.671 137.840 C 112.319 138.623,111.942 139.596,111.833 140.001 C 111.724 140.407,111.390 141.229,111.091 141.828 C 110.792 142.427,110.415 143.479,110.252 144.167 C 110.090 144.854,109.404 147.357,108.729 149.729 C 107.399 154.397,107.386 154.482,107.738 156.327 C 108.193 158.717,110.777 160.779,112.442 160.083 C 112.771 159.946,113.246 159.833,113.497 159.833 C 114.662 159.833,116.793 156.585,116.924 154.610 C 116.952 154.188,117.115 153.815,117.400 153.517 C 117.638 153.269,117.833 153.005,117.833 152.931 C 117.833 152.857,118.282 151.886,118.830 150.774 C 119.799 148.806,119.828 148.708,119.872 147.250 L 119.917 145.750 120.833 145.444 L 121.750 145.138 123.364 145.569 C 125.193 146.057,126.139 146.109,126.819 145.757 C 127.078 145.624,127.761 145.438,128.339 145.345 C 129.095 145.224,129.517 145.053,129.847 144.737 C 130.210 144.390,130.543 144.272,131.444 144.173 C 132.135 144.097,132.926 143.874,133.453 143.607 C 135.702 142.467,136.481 143.721,136.908 149.167 C 137.051 150.990,137.411 153.015,137.941 154.976 C 138.270 156.196,138.338 156.741,138.253 157.478 C 138.154 158.325,138.182 158.456,138.530 158.778 C 139.119 159.324,142.069 161.000,142.440 161.000 C 143.096 161.000,144.285 160.071,144.500 159.390 C 144.612 159.038,144.856 158.487,145.043 158.167 C 145.436 157.493,145.628 153.729,145.323 152.667 C 145.112 151.931,144.198 147.553,144.001 146.333 C 143.919 145.829,143.773 145.155,143.676 144.834 C 143.579 144.514,143.500 143.903,143.500 143.475 C 143.500 142.217,142.686 137.764,142.066 135.631 C 141.751 134.545,141.382 133.078,141.248 132.370 C 140.935 130.728,140.091 127.895,139.499 126.500 C 139.246 125.904,138.948 124.892,138.837 124.250 C 138.725 123.608,138.496 122.521,138.327 121.833 C 138.158 121.146,137.973 120.208,137.917 119.750 C 137.774 118.597,137.173 115.872,136.907 115.167 C 136.521 114.144,135.459 110.120,135.302 109.083 C 135.037 107.342,134.486 104.944,134.172 104.167 C 134.005 103.754,133.772 102.981,133.655 102.448 C 133.465 101.583,133.060 101.000,132.650 101.000 C 132.589 101.000,132.025 101.270,131.395 101.599 M230.056 101.670 C 229.338 102.042,228.103 102.495,227.284 102.687 L 225.808 103.034 225.094 104.004 C 224.429 104.906,224.385 105.031,224.460 105.807 C 224.563 106.880,223.920 108.604,222.789 110.284 C 222.345 110.944,221.811 111.919,221.603 112.451 C 221.394 112.982,221.023 113.734,220.779 114.122 C 220.534 114.509,220.333 114.860,220.333 114.900 C 220.333 114.940,220.006 115.673,219.606 116.528 C 218.185 119.564,213.536 131.838,212.409 135.529 C 212.194 136.233,211.836 137.171,211.614 137.613 C 211.391 138.055,210.977 139.102,210.693 139.940 C 210.410 140.777,210.024 141.723,209.836 142.042 C 209.648 142.360,209.304 143.362,209.073 144.269 C 208.841 145.175,208.118 147.792,207.468 150.083 L 206.284 154.250 206.550 155.914 L 206.815 157.578 208.218 158.956 C 209.753 160.464,210.078 160.584,211.276 160.083 C 211.605 159.946,212.094 159.833,212.363 159.833 C 213.504 159.833,215.635 156.563,215.759 154.625 C 215.786 154.202,215.966 153.810,216.316 153.411 C 216.601 153.087,216.833 152.755,216.833 152.674 C 216.833 152.593,217.244 151.677,217.745 150.638 C 218.617 148.833,218.659 148.684,218.704 147.250 L 218.750 145.750 219.667 145.444 L 220.583 145.138 222.197 145.569 C 224.039 146.061,224.973 146.109,225.670 145.748 C 225.937 145.610,226.611 145.435,227.166 145.359 C 227.925 145.255,228.295 145.106,228.657 144.759 C 229.049 144.384,229.358 144.274,230.315 144.169 C 231.053 144.088,231.802 143.877,232.326 143.603 C 234.589 142.420,235.273 143.624,235.829 149.772 C 235.935 150.947,236.265 152.845,236.599 154.205 C 237.015 155.896,237.169 156.869,237.133 157.570 C 237.076 158.706,237.239 158.878,239.714 160.292 C 241.448 161.282,242.841 160.936,243.336 159.390 C 243.448 159.038,243.699 158.488,243.892 158.168 C 244.402 157.324,244.464 154.009,244.008 152.000 C 243.724 150.746,243.418 149.261,242.584 145.083 C 242.456 144.442,242.305 143.317,242.249 142.583 C 242.119 140.902,241.315 136.823,240.769 135.079 C 240.540 134.348,240.228 133.075,240.076 132.250 C 239.761 130.545,239.015 128.096,238.325 126.498 C 238.067 125.901,237.769 124.889,237.663 124.248 C 237.557 123.608,237.332 122.521,237.164 121.833 C 236.996 121.146,236.809 120.171,236.748 119.667 C 236.624 118.630,235.975 115.796,235.604 114.667 C 234.916 112.574,234.128 109.435,233.994 108.250 C 233.836 106.855,233.380 104.992,232.953 104.000 C 232.815 103.679,232.614 102.986,232.506 102.460 C 232.376 101.821,232.191 101.419,231.951 101.251 C 231.475 100.918,231.536 100.904,230.056 101.670 M188.417 101.984 C 182.834 103.383,172.115 111.310,169.341 116.091 C 169.024 116.637,168.546 117.341,168.278 117.655 C 164.688 121.868,163.756 137.927,166.664 145.468 C 168.810 151.031,177.681 158.084,183.705 159.017 C 184.372 159.120,185.292 159.398,185.750 159.634 C 187.279 160.421,191.646 160.111,193.286 159.099 C 193.820 158.770,194.405 158.497,194.587 158.493 C 195.388 158.475,198.500 156.739,198.500 156.310 C 198.500 156.238,198.941 155.707,199.481 155.131 C 200.020 154.554,200.577 153.804,200.720 153.464 C 200.913 153.001,201.170 152.755,201.743 152.486 C 202.800 151.989,204.425 150.194,204.561 149.374 C 204.617 149.031,204.765 148.563,204.890 148.333 C 205.925 146.428,205.780 147.169,206.600 139.583 C 206.932 136.516,206.879 136.103,205.846 133.697 C 205.044 131.827,204.980 131.585,205.085 130.818 C 205.238 129.705,204.447 128.833,203.284 128.833 C 203.065 128.833,202.455 128.685,201.929 128.504 C 201.362 128.309,200.081 128.102,198.778 127.995 C 197.571 127.896,196.133 127.745,195.583 127.659 C 194.250 127.450,190.135 127.457,189.580 127.668 C 188.012 128.264,186.667 129.922,186.667 131.257 C 186.667 134.070,187.124 135.753,188.157 136.742 L 188.672 137.234 189.808 137.039 C 190.433 136.932,191.350 136.655,191.847 136.424 C 192.344 136.192,192.900 136.003,193.083 136.002 C 193.267 136.002,193.772 135.874,194.206 135.719 C 194.945 135.454,195.032 135.454,195.581 135.715 C 196.301 136.059,196.296 135.939,195.750 140.234 C 195.521 142.036,195.333 144.127,195.333 144.881 C 195.333 147.973,194.489 148.923,190.041 150.840 C 186.736 152.263,186.266 152.289,184.788 151.122 C 183.508 150.112,180.960 147.585,180.715 147.083 C 180.581 146.808,180.328 146.321,180.152 146.000 C 179.977 145.679,179.832 145.117,179.831 144.750 C 179.829 144.383,179.708 143.558,179.563 142.917 C 179.417 142.275,179.310 141.262,179.324 140.667 C 179.339 140.071,179.235 139.096,179.094 138.500 C 178.954 137.904,178.836 136.854,178.833 136.167 C 178.830 135.479,178.757 134.252,178.672 133.440 C 178.553 132.305,178.569 131.803,178.742 131.273 C 178.866 130.894,179.019 130.133,179.083 129.583 C 179.303 127.682,180.862 125.122,183.187 122.840 C 184.032 122.012,184.795 121.333,184.883 121.333 C 184.971 121.333,185.502 120.882,186.063 120.329 C 186.624 119.777,187.487 118.933,187.980 118.454 C 188.472 117.975,189.058 117.296,189.281 116.946 C 189.708 116.275,190.500 115.834,191.286 115.832 C 192.108 115.829,193.471 115.044,194.742 113.840 C 195.459 113.163,196.129 112.667,196.328 112.667 C 196.518 112.667,197.356 112.400,198.189 112.075 C 199.657 111.501,199.751 111.486,201.232 111.595 C 203.231 111.742,204.596 110.689,204.241 109.274 C 204.114 108.768,201.117 105.985,200.189 105.511 C 199.795 105.311,199.022 104.814,198.471 104.409 C 197.920 104.003,197.158 103.589,196.777 103.489 C 196.395 103.388,195.519 103.053,194.829 102.744 C 192.349 101.633,190.630 101.429,188.417 101.984 M269.576 104.391 C 270.317 104.932,268.624 107.455,265.128 111.018 C 261.516 114.701,261.369 114.706,261.629 111.136 C 261.725 109.824,261.764 108.360,261.715 107.884 C 261.506 105.847,262.023 105.314,264.417 105.104 C 265.058 105.048,266.221 104.820,267.000 104.599 C 268.661 104.126,269.159 104.086,269.576 104.391 M130.313 119.773 C 130.424 120.015,130.661 120.845,130.842 121.619 C 131.022 122.393,131.569 123.939,132.057 125.055 C 133.310 127.917,133.365 128.075,133.304 128.603 C 133.210 129.422,131.031 129.842,129.553 129.327 C 129.109 129.172,128.952 129.224,128.055 129.823 C 125.090 131.803,123.199 131.897,124.158 130.016 C 124.337 129.666,124.575 128.884,124.686 128.278 C 124.847 127.407,125.027 127.009,125.549 126.380 C 125.911 125.942,126.447 125.096,126.739 124.500 C 128.908 120.070,129.869 118.798,130.313 119.773 M229.220 119.875 C 229.343 120.173,229.538 120.904,229.652 121.500 C 229.767 122.096,230.369 123.783,230.991 125.250 C 232.440 128.667,232.405 128.541,232.022 129.014 C 231.645 129.480,229.586 129.678,228.501 129.353 C 227.912 129.177,227.826 129.204,226.746 129.914 C 223.818 131.836,222.038 131.885,222.992 130.016 C 223.170 129.666,223.409 128.876,223.523 128.261 C 223.684 127.386,223.859 126.992,224.331 126.447 C 224.662 126.063,225.629 124.438,226.479 122.833 C 228.337 119.327,228.790 118.837,229.220 119.875 M262.682 132.979 C 267.641 134.700,270.926 137.621,270.360 139.807 C 269.712 142.309,266.858 146.700,264.420 148.945 C 263.640 149.663,263.002 150.329,263.001 150.426 C 262.994 151.347,261.441 152.579,261.062 151.965 C 260.767 151.488,260.528 148.113,260.661 146.309 C 260.743 145.202,260.726 143.217,260.618 141.356 C 260.382 137.265,260.408 133.228,260.673 132.909 C 260.945 132.581,261.602 132.604,262.682 132.979 M309.204 148.793 C 308.891 149.533,308.519 150.865,308.334 151.917 C 308.156 152.925,307.891 154.162,307.745 154.667 C 307.176 156.627,307.608 158.590,308.721 159.106 C 309.012 159.241,309.550 159.534,309.917 159.756 C 310.696 160.230,310.959 160.255,311.606 159.918 C 311.869 159.781,312.294 159.668,312.552 159.668 C 313.258 159.666,314.675 159.017,315.338 158.392 C 315.662 158.087,316.397 157.653,316.971 157.428 C 318.169 156.959,319.455 155.699,319.772 154.686 C 319.991 153.985,319.878 150.530,319.626 150.211 C 319.340 149.849,313.785 148.167,312.874 148.167 C 312.417 148.167,311.574 148.017,311.000 147.833 C 310.426 147.650,309.910 147.501,309.853 147.501 C 309.796 147.502,309.504 148.083,309.204 148.793 " stroke="none" fill="#ffffff" fill-rule="evenodd"></path></g></svg>